# xmcd
#
# Track frame offsets: 
#        150
#        2651
#        21304
#        35455
#        52104
#        68709
#        85972
#        97409
#        113171
#        132303
#        147741
#        165175
#
# Disc length: 2606 seconds
#
# Revision: 0
# Processed by: cddbd v1.5.2PL0 Copyright (c) Steve Scherf et al.
# Submitted via: ExactAudioCopyFreeDBPlugin 1.0
#
DISCID=a70a2c0c
DTITLE=Joey Feek - If Not For You
DYEAR=2017
DGENRE=Country
TTITLE0=Intro
TTITLE1=Strong Enough To Cry
TTITLE2=That's Important To Me
TTITLE3=When The Needle Hit The Vinyl
TTITLE4=Nothing To Remember
TTITLE5=The Cowboy's Mine
TTITLE6=If Not For You
TTITLE7=Southern Girl
TTITLE8=Red
TTITLE9=Like A Rodeo
TTITLE10=See You There
TTITLE11=Old Paint
EXTD=
EXTT0=
EXTT1=
EXTT2=
EXTT3=
EXTT4=
EXTT5=
EXTT6=
EXTT7=
EXTT8=
EXTT9=
EXTT10=
EXTT11=
PLAYORDER=
